<svg xmlns="http://www.w3.org/2000/svg" xmlns:xlink="http://www.w3.org/1999/xlink" width="500" zoomAndPan="magnify" viewBox="0 0 375 374.999991" height="500" preserveAspectRatio="xMidYMid meet" version="1.0"><defs><g/><clipPath id="cd7f500194"><path d="M 112.625 83.917969 L 262.625 83.917969 L 262.625 233.917969 L 112.625 233.917969 Z M 112.625 83.917969 " clip-rule="nonzero"/></clipPath></defs><g clip-path="url(#cd7f500194)"><path fill="#ffffff" d="M 187.496094 233.65625 C 184.535156 233.65625 181.53125 233.476562 178.5625 233.128906 C 143.445312 228.984375 115.832031 200.398438 112.898438 165.152344 C 111.136719 143.972656 118.070312 123.722656 132.417969 108.132812 C 146.578125 92.746094 166.652344 83.921875 187.5 83.921875 C 189.777344 83.921875 192.09375 84.023438 194.378906 84.230469 C 230.386719 87.464844 258.851562 115.960938 262.066406 151.984375 C 263.605469 169.222656 259.183594 186.3125 249.585938 200.539062 L 255.609375 206.480469 C 258.242188 209.078125 259.710938 212.550781 259.734375 216.25 C 259.761719 219.953125 258.339844 223.445312 255.742188 226.078125 C 253.117188 228.738281 249.613281 230.203125 245.875 230.203125 C 242.191406 230.203125 238.722656 228.773438 236.109375 226.175781 L 180.375 170.796875 C 174.898438 165.351562 174.15625 156.824219 178.617188 150.515625 C 181.566406 146.34375 186.378906 143.855469 191.484375 143.855469 C 192.652344 143.855469 193.824219 143.988281 194.964844 144.246094 L 224.722656 150.976562 C 225.191406 151.082031 225.667969 151.140625 226.128906 151.140625 C 228.101562 151.140625 229.980469 150.144531 231.152344 148.480469 C 231.820312 147.53125 232.808594 145.554688 231.894531 142.996094 C 225.210938 124.257812 207.371094 111.671875 187.5 111.671875 C 174.34375 111.671875 161.679688 117.257812 152.757812 126.996094 C 143.722656 136.859375 139.394531 149.660156 140.570312 163.042969 C 142.421875 184.09375 158.277344 201.410156 179.128906 205.15625 C 181.902344 205.652344 184.722656 205.90625 187.503906 205.90625 C 189.421875 205.90625 191.363281 205.785156 193.269531 205.546875 C 193.871094 205.472656 194.480469 205.433594 195.082031 205.433594 C 198.824219 205.433594 202.316406 206.847656 204.917969 209.40625 C 208.738281 213.175781 210.039062 218.675781 208.320312 223.765625 C 206.617188 228.816406 202.289062 232.371094 197.019531 233.046875 C 193.882812 233.449219 190.675781 233.65625 187.496094 233.65625 Z M 187.496094 233.65625 " fill-opacity="1" fill-rule="nonzero"/></g><g fill="#ffffff" fill-opacity="1"><g transform="translate(90.472055, 294.783643)"><g><path d="M 34.984375 2.5 L 30.1875 -2.28125 C 27.320312 -0.320312 23.945312 0.65625 20.0625 0.65625 C 16.351562 0.65625 13.132812 -0.207031 10.40625 -1.9375 C 7.6875 -3.664062 5.570312 -6.046875 4.0625 -9.078125 C 2.550781 -12.109375 1.796875 -15.585938 1.796875 -19.515625 C 1.796875 -23.429688 2.550781 -26.894531 4.0625 -29.90625 C 5.570312 -32.925781 7.6875 -35.300781 10.40625 -37.03125 C 13.132812 -38.757812 16.351562 -39.625 20.0625 -39.625 C 23.757812 -39.625 26.976562 -38.757812 29.71875 -37.03125 C 32.46875 -35.300781 34.585938 -32.925781 36.078125 -29.90625 C 37.566406 -26.894531 38.3125 -23.429688 38.3125 -19.515625 C 38.3125 -16.390625 37.820312 -13.523438 36.84375 -10.921875 C 35.863281 -8.328125 34.460938 -6.125 32.640625 -4.3125 L 37.21875 0.265625 Z M 20.0625 -2.5 C 22.925781 -2.5 25.46875 -3.265625 27.6875 -4.796875 L 23.109375 -9.421875 L 25.34375 -11.609375 L 30.03125 -6.921875 C 31.445312 -8.410156 32.550781 -10.226562 33.34375 -12.375 C 34.144531 -14.519531 34.546875 -16.898438 34.546875 -19.515625 C 34.546875 -22.859375 33.9375 -25.804688 32.71875 -28.359375 C 31.507812 -30.921875 29.820312 -32.921875 27.65625 -34.359375 C 25.5 -35.796875 22.96875 -36.515625 20.0625 -36.515625 C 17.1875 -36.515625 14.65625 -35.796875 12.46875 -34.359375 C 10.289062 -32.921875 8.59375 -30.921875 7.375 -28.359375 C 6.164062 -25.804688 5.5625 -22.859375 5.5625 -19.515625 C 5.5625 -16.171875 6.164062 -13.21875 7.375 -10.65625 C 8.59375 -8.09375 10.289062 -6.09375 12.46875 -4.65625 C 14.65625 -3.21875 17.1875 -2.5 20.0625 -2.5 Z M 20.0625 -2.5 "/></g></g></g><g fill="#ffffff" fill-opacity="1"><g transform="translate(130.57825, 294.783643)"><g><path d="M 20.0625 0.65625 C 16.351562 0.65625 13.132812 -0.207031 10.40625 -1.9375 C 7.6875 -3.664062 5.570312 -6.046875 4.0625 -9.078125 C 2.550781 -12.109375 1.796875 -15.585938 1.796875 -19.515625 C 1.796875 -23.429688 2.550781 -26.894531 4.0625 -29.90625 C 5.570312 -32.925781 7.6875 -35.300781 10.40625 -37.03125 C 13.132812 -38.757812 16.351562 -39.625 20.0625 -39.625 C 23.757812 -39.625 26.976562 -38.757812 29.71875 -37.03125 C 32.46875 -35.300781 34.585938 -32.925781 36.078125 -29.90625 C 37.566406 -26.894531 38.3125 -23.429688 38.3125 -19.515625 C 38.3125 -15.585938 37.566406 -12.109375 36.078125 -9.078125 C 34.585938 -6.046875 32.46875 -3.664062 29.71875 -1.9375 C 26.976562 -0.207031 23.757812 0.65625 20.0625 0.65625 Z M 20.0625 -2.5 C 22.96875 -2.5 25.5 -3.21875 27.65625 -4.65625 C 29.820312 -6.09375 31.507812 -8.09375 32.71875 -10.65625 C 33.9375 -13.21875 34.546875 -16.171875 34.546875 -19.515625 C 34.546875 -22.859375 33.9375 -25.804688 32.71875 -28.359375 C 31.507812 -30.921875 29.820312 -32.921875 27.65625 -34.359375 C 25.5 -35.796875 22.96875 -36.515625 20.0625 -36.515625 C 17.1875 -36.515625 14.65625 -35.796875 12.46875 -34.359375 C 10.289062 -32.921875 8.59375 -30.921875 7.375 -28.359375 C 6.164062 -25.804688 5.5625 -22.859375 5.5625 -19.515625 C 5.5625 -16.171875 6.164062 -13.21875 7.375 -10.65625 C 8.59375 -8.09375 10.289062 -6.09375 12.46875 -4.65625 C 14.65625 -3.21875 17.1875 -2.5 20.0625 -2.5 Z M 20.0625 -2.5 "/></g></g></g><g fill="#ffffff" fill-opacity="1"><g transform="translate(170.684445, 294.783643)"><g><path d="M 3.328125 0 L 3.328125 -38.96875 L 18.09375 -38.96875 C 21.832031 -38.96875 24.910156 -38.113281 27.328125 -36.40625 C 29.742188 -34.695312 31.539062 -32.367188 32.71875 -29.421875 C 33.90625 -26.484375 34.5 -23.125 34.5 -19.34375 C 34.5 -15.5625 33.898438 -12.21875 32.703125 -9.3125 C 31.503906 -6.40625 29.6875 -4.125 27.25 -2.46875 C 24.8125 -0.820312 21.722656 0 17.984375 0 Z M 7.03125 -3.15625 L 17.546875 -3.15625 C 21.867188 -3.15625 25.144531 -4.597656 27.375 -7.484375 C 29.613281 -10.378906 30.734375 -14.332031 30.734375 -19.34375 C 30.734375 -24.363281 29.660156 -28.363281 27.515625 -31.34375 C 25.378906 -34.320312 22.148438 -35.8125 17.828125 -35.8125 L 7.03125 -35.8125 Z M 7.03125 -3.15625 "/></g></g></g><g fill="#ffffff" fill-opacity="1"><g transform="translate(206.976187, 294.783643)"><g><path d="M 3.328125 0 L 3.328125 -38.96875 L 19.34375 -38.96875 C 23.09375 -38.96875 26.082031 -38.066406 28.3125 -36.265625 C 30.550781 -34.472656 31.671875 -31.703125 31.671875 -27.953125 C 31.671875 -25.191406 30.90625 -22.972656 29.375 -21.296875 C 27.851562 -19.628906 25.800781 -18.546875 23.21875 -18.046875 L 23.21875 -17.9375 C 24.851562 -17.71875 26.171875 -17.148438 27.171875 -16.234375 C 28.171875 -15.328125 28.929688 -14.226562 29.453125 -12.9375 C 29.984375 -11.65625 30.363281 -10.3125 30.59375 -8.90625 C 30.832031 -7.507812 31.003906 -6.179688 31.109375 -4.921875 C 31.222656 -3.671875 31.363281 -2.628906 31.53125 -1.796875 C 31.695312 -0.960938 31.957031 -0.488281 32.3125 -0.375 L 32.3125 0 L 28.34375 0 C 28.007812 -0.289062 27.78125 -0.878906 27.65625 -1.765625 C 27.53125 -2.660156 27.421875 -3.722656 27.328125 -4.953125 C 27.242188 -6.191406 27.070312 -7.460938 26.8125 -8.765625 C 26.5625 -10.078125 26.15625 -11.304688 25.59375 -12.453125 C 25.03125 -13.597656 24.21875 -14.523438 23.15625 -15.234375 C 22.101562 -15.941406 20.707031 -16.296875 18.96875 -16.296875 L 7.078125 -16.296875 L 7.078125 0 Z M 7.078125 -19.40625 L 18.09375 -19.40625 C 21 -19.40625 23.359375 -20.082031 25.171875 -21.4375 C 26.992188 -22.800781 27.90625 -24.863281 27.90625 -27.625 C 27.90625 -30.53125 27.066406 -32.617188 25.390625 -33.890625 C 23.722656 -35.171875 21.289062 -35.8125 18.09375 -35.8125 L 7.078125 -35.8125 Z M 7.078125 -19.40625 "/></g></g></g><g fill="#ffffff" fill-opacity="1"><g transform="translate(240.870277, 294.783643)"><g><path d="M 3.484375 0 L 3.484375 -38.96875 L 7.25 -38.96875 L 7.25 0 Z M 3.484375 0 "/></g></g></g><g fill="#ffffff" fill-opacity="1"><g transform="translate(251.550726, 294.783643)"><g><path d="M 0.59375 0 L 14.328125 -19.890625 L 1.53125 -38.96875 L 5.671875 -38.96875 L 16.40625 -22.9375 L 16.515625 -22.9375 L 27.296875 -38.96875 L 31.453125 -38.96875 L 18.640625 -19.953125 L 32.375 0 L 28.125 0 L 16.515625 -16.84375 L 16.40625 -16.84375 L 4.84375 0 Z M 0.59375 0 "/></g></g></g></svg>