<svg xmlns="http://www.w3.org/2000/svg" xmlns:xlink="http://www.w3.org/1999/xlink" width="500" zoomAndPan="magnify" viewBox="0 0 375 374.999991" height="500" preserveAspectRatio="xMidYMid meet" version="1.0"><defs><clipPath id="c94f592450"><path d="M 112.625 112.625 L 262.625 112.625 L 262.625 262.625 L 112.625 262.625 Z M 112.625 112.625 " clip-rule="nonzero"/></clipPath></defs><g clip-path="url(#c94f592450)"><path fill="#ffffff" d="M 187.496094 262.367188 C 184.535156 262.367188 181.53125 262.1875 178.5625 261.835938 C 143.445312 257.695312 115.832031 229.105469 112.898438 193.863281 C 111.136719 172.683594 118.070312 152.433594 132.417969 136.839844 C 146.578125 121.453125 166.652344 112.628906 187.5 112.628906 C 189.777344 112.628906 192.09375 112.734375 194.378906 112.9375 C 230.386719 116.175781 258.851562 144.671875 262.066406 180.695312 C 263.605469 197.933594 259.183594 215.023438 249.585938 229.246094 L 255.609375 235.191406 C 258.242188 237.789062 259.710938 241.257812 259.734375 244.960938 C 259.761719 248.664062 258.339844 252.152344 255.742188 254.789062 C 253.117188 257.449219 249.613281 258.914062 245.875 258.914062 C 242.191406 258.914062 238.722656 257.484375 236.109375 254.886719 L 180.375 199.503906 C 174.898438 194.0625 174.15625 185.53125 178.617188 179.226562 C 181.566406 175.054688 186.378906 172.5625 191.484375 172.5625 C 192.652344 172.5625 193.824219 172.695312 194.964844 172.953125 L 224.722656 179.6875 C 225.191406 179.792969 225.667969 179.847656 226.128906 179.847656 C 228.101562 179.847656 229.980469 178.855469 231.152344 177.191406 C 231.820312 176.238281 232.808594 174.261719 231.894531 171.703125 C 225.210938 152.96875 207.371094 140.382812 187.5 140.382812 C 174.34375 140.382812 161.679688 145.964844 152.757812 155.703125 C 143.722656 165.570312 139.394531 178.371094 140.570312 191.75 C 142.421875 212.800781 158.277344 230.121094 179.128906 233.863281 C 181.902344 234.359375 184.722656 234.613281 187.503906 234.613281 C 189.421875 234.613281 191.363281 234.492188 193.269531 234.257812 C 193.871094 234.183594 194.480469 234.144531 195.082031 234.144531 C 198.824219 234.144531 202.316406 235.554688 204.917969 238.117188 C 208.738281 241.882812 210.039062 247.386719 208.320312 252.476562 C 206.617188 257.523438 202.289062 261.082031 197.019531 261.757812 C 193.882812 262.160156 190.675781 262.367188 187.496094 262.367188 Z M 187.496094 262.367188 " fill-opacity="1" fill-rule="nonzero"/></g></svg>