<svg xmlns="http://www.w3.org/2000/svg" xmlns:xlink="http://www.w3.org/1999/xlink" width="500" zoomAndPan="magnify" viewBox="0 0 375 374.999991" height="500" preserveAspectRatio="xMidYMid meet" version="1.0"><defs><clipPath id="8e81f34e20"><path d="M 112.5 112.5 L 262.5 112.5 L 262.5 262.5 L 112.5 262.5 Z M 112.5 112.5 " clip-rule="nonzero"/></clipPath></defs><g clip-path="url(#8e81f34e20)"><path fill="#000014" d="M 187.5 262.496094 C 184.535156 262.496094 181.523438 262.320312 178.550781 261.96875 C 143.375 257.816406 115.710938 229.179688 112.773438 193.875 C 111.007812 172.660156 117.953125 152.375 132.324219 136.757812 C 146.507812 121.34375 166.621094 112.503906 187.503906 112.503906 C 189.785156 112.503906 192.101562 112.609375 194.394531 112.8125 C 230.460938 116.054688 258.976562 144.601562 262.195312 180.683594 C 263.738281 197.953125 259.3125 215.074219 249.695312 229.320312 L 255.726562 235.273438 C 258.367188 237.878906 259.835938 241.355469 259.859375 245.0625 C 259.886719 248.769531 258.464844 252.269531 255.863281 254.90625 C 253.234375 257.570312 249.722656 259.039062 245.980469 259.039062 C 242.289062 259.039062 238.8125 257.605469 236.195312 255.003906 L 180.367188 199.527344 C 174.878906 194.074219 174.136719 185.53125 178.605469 179.214844 C 181.558594 175.035156 186.378906 172.539062 191.496094 172.539062 C 192.664062 172.539062 193.835938 172.671875 194.980469 172.929688 L 224.789062 179.675781 C 225.257812 179.78125 225.734375 179.835938 226.199219 179.835938 C 228.175781 179.835938 230.054688 178.839844 231.230469 177.175781 C 231.898438 176.222656 232.890625 174.242188 231.976562 171.679688 C 225.277344 152.910156 207.40625 140.300781 187.503906 140.300781 C 174.320312 140.300781 161.636719 145.898438 152.703125 155.652344 C 143.652344 165.535156 139.316406 178.359375 140.492188 191.761719 C 142.347656 212.847656 158.230469 230.195312 179.117188 233.945312 C 181.898438 234.445312 184.71875 234.699219 187.507812 234.699219 C 189.429688 234.699219 191.371094 234.578125 193.28125 234.339844 C 193.882812 234.265625 194.496094 234.226562 195.097656 234.226562 C 198.847656 234.226562 202.347656 235.640625 204.949219 238.207031 C 208.777344 241.980469 210.082031 247.492188 208.359375 252.589844 C 206.652344 257.648438 202.316406 261.210938 197.039062 261.886719 C 193.894531 262.292969 190.683594 262.496094 187.5 262.496094 Z M 187.5 262.496094 " fill-opacity="1" fill-rule="nonzero"/></g></svg>