<svg xmlns="http://www.w3.org/2000/svg" xmlns:xlink="http://www.w3.org/1999/xlink" width="500" zoomAndPan="magnify" viewBox="0 0 375 149.999998" height="200" preserveAspectRatio="xMidYMid meet" version="1.0"><defs><g/><clipPath id="4560d6f859"><path d="M 79.902344 39.449219 L 151 39.449219 L 151 110.699219 L 79.902344 110.699219 Z M 79.902344 39.449219 " clip-rule="nonzero"/></clipPath></defs><g clip-path="url(#4560d6f859)"><path fill="#000014" d="M 115.453125 110.546875 C 114.046875 110.546875 112.621094 110.460938 111.210938 110.296875 C 94.535156 108.328125 81.425781 94.753906 80.03125 78.023438 C 79.195312 67.964844 82.488281 58.351562 89.300781 50.949219 C 96.023438 43.640625 105.554688 39.453125 115.453125 39.453125 C 116.535156 39.453125 117.632812 39.5 118.71875 39.597656 C 135.816406 41.136719 149.332031 54.664062 150.855469 71.769531 C 151.585938 79.953125 149.488281 88.070312 144.929688 94.824219 L 147.792969 97.644531 C 149.042969 98.878906 149.738281 100.527344 149.75 102.28125 C 149.761719 104.039062 149.089844 105.699219 147.855469 106.949219 C 146.609375 108.210938 144.945312 108.90625 143.171875 108.90625 C 141.421875 108.90625 139.773438 108.230469 138.53125 106.996094 L 112.070312 80.703125 C 109.46875 78.117188 109.117188 74.066406 111.234375 71.070312 C 112.636719 69.089844 114.921875 67.910156 117.34375 67.910156 C 117.898438 67.910156 118.457031 67.972656 118.996094 68.09375 L 133.125 71.292969 C 133.347656 71.339844 133.574219 71.367188 133.792969 71.367188 C 134.730469 71.367188 135.621094 70.894531 136.179688 70.105469 C 136.496094 69.652344 136.96875 68.714844 136.53125 67.5 C 133.359375 58.605469 124.886719 52.628906 115.453125 52.628906 C 109.207031 52.628906 103.195312 55.28125 98.957031 59.90625 C 94.667969 64.589844 92.613281 70.667969 93.171875 77.019531 C 94.050781 87.015625 101.578125 95.238281 111.480469 97.015625 C 112.796875 97.25 114.132812 97.371094 115.453125 97.371094 C 116.367188 97.371094 117.289062 97.3125 118.191406 97.199219 C 118.476562 97.164062 118.769531 97.148438 119.054688 97.148438 C 120.832031 97.148438 122.488281 97.816406 123.722656 99.035156 C 125.535156 100.820312 126.15625 103.433594 125.339844 105.851562 C 124.53125 108.25 122.472656 109.9375 119.972656 110.257812 C 118.484375 110.449219 116.960938 110.546875 115.453125 110.546875 Z M 115.453125 110.546875 " fill-opacity="1" fill-rule="nonzero"/></g><g fill="#000014" fill-opacity="1"><g transform="translate(152.659565, 107.881328)"><g><path d="M 13.703125 0.453125 C 11.171875 0.453125 8.972656 -0.132812 7.109375 -1.3125 C 5.253906 -2.5 3.8125 -4.128906 2.78125 -6.203125 C 1.75 -8.273438 1.234375 -10.648438 1.234375 -13.328125 C 1.234375 -16.015625 1.75 -18.390625 2.78125 -20.453125 C 3.8125 -22.515625 5.253906 -24.132812 7.109375 -25.3125 C 8.972656 -26.488281 11.171875 -27.078125 13.703125 -27.078125 C 16.234375 -27.078125 18.4375 -26.488281 20.3125 -25.3125 C 22.1875 -24.132812 23.632812 -22.515625 24.65625 -20.453125 C 25.675781 -18.390625 26.1875 -16.015625 26.1875 -13.328125 C 26.1875 -10.648438 25.675781 -8.273438 24.65625 -6.203125 C 23.632812 -4.128906 22.1875 -2.5 20.3125 -1.3125 C 18.4375 -0.132812 16.234375 0.453125 13.703125 0.453125 Z M 13.703125 -1.71875 C 15.691406 -1.71875 17.425781 -2.207031 18.90625 -3.1875 C 20.382812 -4.164062 21.535156 -5.53125 22.359375 -7.28125 C 23.191406 -9.03125 23.609375 -11.046875 23.609375 -13.328125 C 23.609375 -15.617188 23.191406 -17.640625 22.359375 -19.390625 C 21.535156 -21.140625 20.382812 -22.503906 18.90625 -23.484375 C 17.425781 -24.460938 15.691406 -24.953125 13.703125 -24.953125 C 11.742188 -24.953125 10.019531 -24.460938 8.53125 -23.484375 C 7.039062 -22.503906 5.878906 -21.140625 5.046875 -19.390625 C 4.210938 -17.640625 3.796875 -15.617188 3.796875 -13.328125 C 3.796875 -11.046875 4.210938 -9.03125 5.046875 -7.28125 C 5.878906 -5.53125 7.039062 -4.164062 8.53125 -3.1875 C 10.019531 -2.207031 11.742188 -1.71875 13.703125 -1.71875 Z M 13.703125 -1.71875 "/></g></g></g><g fill="#000014" fill-opacity="1"><g transform="translate(180.069766, 107.881328)"><g><path d="M 2.265625 0 L 2.265625 -26.640625 L 12.359375 -26.640625 C 14.921875 -26.640625 17.023438 -26.050781 18.671875 -24.875 C 20.328125 -23.707031 21.554688 -22.117188 22.359375 -20.109375 C 23.171875 -18.097656 23.578125 -15.800781 23.578125 -13.21875 C 23.578125 -10.632812 23.164062 -8.347656 22.34375 -6.359375 C 21.53125 -4.378906 20.289062 -2.820312 18.625 -1.6875 C 16.957031 -0.5625 14.847656 0 12.296875 0 Z M 4.8125 -2.15625 L 12 -2.15625 C 14.945312 -2.15625 17.1875 -3.140625 18.71875 -5.109375 C 20.25 -7.085938 21.015625 -9.789062 21.015625 -13.21875 C 21.015625 -16.644531 20.28125 -19.375 18.8125 -21.40625 C 17.34375 -23.445312 15.132812 -24.46875 12.1875 -24.46875 L 4.8125 -24.46875 Z M 4.8125 -2.15625 "/></g></g></g><g fill="#000014" fill-opacity="1"><g transform="translate(204.873014, 107.881328)"><g><path d="M 2.265625 0 L 2.265625 -26.640625 L 13.21875 -26.640625 C 15.78125 -26.640625 17.820312 -26.023438 19.34375 -24.796875 C 20.875 -23.566406 21.640625 -21.671875 21.640625 -19.109375 C 21.640625 -17.222656 21.117188 -15.707031 20.078125 -14.5625 C 19.035156 -13.414062 17.632812 -12.671875 15.875 -12.328125 L 15.875 -12.25 C 16.988281 -12.101562 17.882812 -11.71875 18.5625 -11.09375 C 19.25 -10.476562 19.769531 -9.726562 20.125 -8.84375 C 20.488281 -7.96875 20.75 -7.050781 20.90625 -6.09375 C 21.070312 -5.132812 21.191406 -4.226562 21.265625 -3.375 C 21.335938 -2.519531 21.429688 -1.804688 21.546875 -1.234375 C 21.660156 -0.660156 21.84375 -0.335938 22.09375 -0.265625 L 22.09375 0 L 19.375 0 C 19.144531 -0.195312 18.988281 -0.597656 18.90625 -1.203125 C 18.820312 -1.816406 18.75 -2.546875 18.6875 -3.390625 C 18.625 -4.234375 18.503906 -5.101562 18.328125 -6 C 18.148438 -6.894531 17.867188 -7.734375 17.484375 -8.515625 C 17.097656 -9.296875 16.546875 -9.925781 15.828125 -10.40625 C 15.109375 -10.894531 14.15625 -11.140625 12.96875 -11.140625 L 4.84375 -11.140625 L 4.84375 0 Z M 4.84375 -13.265625 L 12.359375 -13.265625 C 14.347656 -13.265625 15.960938 -13.726562 17.203125 -14.65625 C 18.453125 -15.59375 19.078125 -17.003906 19.078125 -18.890625 C 19.078125 -20.867188 18.503906 -22.289062 17.359375 -23.15625 C 16.210938 -24.03125 14.546875 -24.46875 12.359375 -24.46875 L 4.84375 -24.46875 Z M 4.84375 -13.265625 "/></g></g></g><g fill="#000014" fill-opacity="1"><g transform="translate(228.037605, 107.881328)"><g><path d="M 2.390625 0 L 2.390625 -26.640625 L 4.953125 -26.640625 L 4.953125 0 Z M 2.390625 0 "/></g></g></g><g fill="#000014" fill-opacity="1"><g transform="translate(235.337059, 107.881328)"><g><path d="M 0.40625 0 L 9.796875 -13.59375 L 1.046875 -26.640625 L 3.875 -26.640625 L 11.21875 -15.6875 L 11.28125 -15.6875 L 18.65625 -26.640625 L 21.5 -26.640625 L 12.734375 -13.640625 L 22.125 0 L 19.21875 0 L 11.28125 -11.515625 L 11.21875 -11.515625 L 3.3125 0 Z M 0.40625 0 "/></g></g></g></svg>